<svg width="272" height="260" viewBox="0 0 272 260" fill="none" xmlns="http://www.w3.org/2000/svg">
<path d="M267 130C267 198.825 208.564 255 136 255C63.4357 255 5 198.825 5 130C5 61.1746 63.4357 5 136 5C208.564 5 267 61.1746 267 130Z" fill="#F7F7F7" stroke="black" stroke-width="10"/>
<path d="M115.783 161L106.033 132.65H65.6826L56.0826 161H35.6826L74.9826 53.45H96.8826L136.183 161H115.783ZM91.7826 88.55C91.3826 87.15 90.7826 85.25 89.9826 82.85C89.1826 80.45 88.3826 78 87.5826 75.5C86.8826 72.9 86.3326 70.75 85.9326 69.05C85.4326 71.05 84.7826 73.35 83.9826 75.95C83.2826 78.55 82.5826 81 81.8826 83.3C81.1826 85.6 80.6826 87.35 80.3826 88.55L70.9326 116.15H101.083L91.7826 88.55Z" fill="black"/>
<path d="M218.337 201H140.637V187.95L193.887 110.1H142.137V93.9H216.837V106.95L163.737 184.8H218.337V201Z" fill="black"/>
</svg>
